<svg width="336" height="87" viewBox="0 0 336 87" fill="none" xmlns="http://www.w3.org/2000/svg">
<path d="M24.9083 30.8506L0.855927 7.36043C-0.233348 6.29662 -0.233348 4.54276 0.855927 3.47894C1.9452 2.41513 3.74103 2.41513 4.83031 3.47894L28.8827 26.9691C29.9719 28.0329 29.9719 29.7868 28.8827 30.8506C27.7934 31.9144 26.027 31.9144 24.9083 30.8506Z" fill="#19FF00"/>
<path d="M24.9084 18.4874L11.1305 5.03156C9.86462 3.79523 10.7773 1.69634 12.5436 1.69634H26.8809C28.4412 1.69634 29.7071 2.93268 29.7071 4.45652C29.7071 5.98036 28.4412 7.21668 26.8809 7.21668H26.1743C24.4079 7.21668 23.4953 9.31557 24.7612 10.5519L28.9122 14.6059C29.4421 15.1234 29.7365 15.8135 29.7365 16.561C29.7365 19.0049 26.7042 20.2412 24.9084 18.4874Z" fill="#19FF00"/>
<path d="M18.5494 33.6108H2.85795C1.29763 33.6108 0.0317181 32.3745 0.0317181 30.8506C0.0317181 29.3268 1.29763 28.0905 2.85795 28.0905H4.97761C6.744 28.0905 7.6272 26.0203 6.42017 24.784L0.738273 19.0337C0.237795 18.5449 -0.0271634 17.8836 0.00227644 17.1935C0.0317163 14.8934 2.88738 13.7433 4.56545 15.3534L19.9625 30.2468C21.199 31.4832 20.3158 33.6108 18.5494 33.6108Z" fill="#19FF00"/>
<path d="M51.4337 19.8675C50.6094 19.3787 49.6968 18.9761 48.6664 18.6599C47.8715 18.4011 47.1061 18.1136 46.3406 17.8548C45.5752 17.5961 44.957 17.2511 44.4565 16.8198C43.956 16.3885 43.7205 15.8422 43.7499 15.1234C43.7499 14.5771 43.9266 14.1459 44.2504 13.8008C44.5742 13.4558 45.0158 13.1683 45.5457 12.9958C46.0757 12.8233 46.6645 12.7083 47.2827 12.7083C47.9598 12.7083 48.7252 12.8808 49.579 13.197C50.4328 13.5133 51.1393 14.0021 51.7576 14.6346L53.6711 11.7307C52.6407 10.8969 51.5515 10.2931 50.3739 9.9481C49.1963 9.60308 47.9009 9.43057 46.3995 9.43057C44.7803 9.43057 43.4261 9.74685 42.2779 10.3506C41.1592 10.9832 40.3054 11.7595 39.7166 12.7083C39.1573 13.6571 38.8629 14.6921 38.8629 15.7847C38.8629 17.2223 39.3339 18.4586 40.2466 19.4649C41.1592 20.4713 42.5134 21.2475 44.2504 21.8226C45.1336 22.0526 45.9579 22.3114 46.7233 22.5701C47.4888 22.8289 48.107 23.1739 48.6075 23.6052C49.108 24.0365 49.3435 24.6115 49.3435 25.3878C49.3435 26.0203 49.1668 26.5379 48.8136 26.9404C48.4603 27.3429 47.9893 27.6304 47.4005 27.8029C46.8117 27.9755 46.1934 28.0617 45.4869 28.0617C44.5742 28.0617 43.6322 27.8604 42.7195 27.4292C41.8069 26.9979 40.8648 26.3941 39.9522 25.5316L37.9503 28.2342C38.8629 29.2693 40.0405 30.0456 41.483 30.5631C42.8962 31.0806 44.3682 31.3394 45.8696 31.3394C47.7537 31.3394 49.314 31.0231 50.5211 30.4193C51.7281 29.7868 52.6407 28.953 53.259 27.918C53.8478 26.8541 54.1716 25.7041 54.1716 24.4677C54.1716 23.3752 53.9361 22.4551 53.4356 21.7076C52.9352 20.9888 52.258 20.385 51.4337 19.8675Z" fill="white"/>
<path d="M67.7434 1.03506H62.8564V10.2644H58.9997V13.9446H62.8564V30.9656H67.7434V13.9446H73.5725V10.2644H67.7434V1.03506Z" fill="white"/>
<path d="M96.3589 11.7307C94.5042 10.1206 92.1785 9.31556 89.3522 9.31556C87.1442 9.31556 85.1718 9.80434 83.3759 10.8107C81.5801 11.817 80.167 13.1683 79.0777 14.8359C77.9884 16.5035 77.4585 18.3724 77.4585 20.4137C77.4585 22.5701 77.9296 24.4677 78.9011 26.1066C79.8726 27.7742 81.2268 29.068 82.9638 30.0168C84.7007 30.9656 86.791 31.4544 89.2345 31.4544C90.5004 31.4544 91.7957 31.2244 93.1205 30.7931C94.4453 30.3619 95.6229 29.7868 96.6827 29.0968L94.5336 25.6178C93.7388 26.1641 92.9145 26.5954 92.0313 26.9116C91.1481 27.2567 90.2649 27.4004 89.3228 27.4004C87.9391 27.4004 86.7321 27.0841 85.6428 26.4804C84.6418 25.9053 83.847 25.1003 83.2582 24.094L82.5516 24.3527L81.4329 21.5926L82.3161 21.2763C82.2572 20.9025 82.2572 20.5287 82.2572 20.155C82.2572 18.7461 82.5516 17.5098 83.1404 16.4748C83.7292 15.4109 84.5241 14.5771 85.5251 13.9733C86.526 13.3696 87.7036 13.082 88.999 13.082C90.5298 13.082 91.7957 13.4846 92.7673 14.2896C93.6504 15.0084 94.2687 15.871 94.7103 16.8485L95.7996 16.446L94.828 17.136C94.7986 17.021 94.7397 16.9348 94.7103 16.8198L82.3455 21.2763C82.4633 22.2251 82.7283 23.1164 83.1699 23.9215C83.1993 23.979 83.2582 24.0652 83.2876 24.1227L100.157 18.3436C99.4795 15.5547 98.2136 13.3408 96.3589 11.7307Z" fill="white"/>
<path d="M82.3455 21.305L81.4623 21.6213L82.5811 24.3815L83.2876 24.1227C83.2582 24.0652 83.1993 23.979 83.1699 23.9215C82.7283 23.1452 82.4633 22.2538 82.3455 21.305Z" fill="white"/>
<path d="M95.7996 16.446L94.7103 16.8485C94.7397 16.9635 94.7986 17.0498 94.828 17.1648L95.7996 16.446Z" fill="white"/>
<path d="M123.413 13.8008C123.354 13.6858 123.296 13.5996 123.208 13.4846L123.09 14.5484L123.413 13.8008Z" fill="white"/>
<path d="M123.208 25.5603V27.5729C123.473 27.2566 123.65 26.9979 123.767 26.7679L123.208 25.5603Z" fill="white"/>
<path d="M123.208 13.4846C123.267 13.5996 123.355 13.6858 123.414 13.8008L123.12 14.5484L123.208 13.4846C122.531 12.4207 121.559 11.4719 120.294 10.6669C118.91 9.77559 117.202 9.34432 115.23 9.34432C113.228 9.34432 111.403 9.80435 109.725 10.6957C108.047 11.587 106.692 12.8808 105.721 14.5771C104.72 16.2447 104.219 18.2574 104.219 20.615C104.219 22.9727 104.69 24.9565 105.662 26.5666C106.633 28.2055 107.929 29.413 109.548 30.2468C111.167 31.0807 112.992 31.5119 114.965 31.5119C116.231 31.5119 117.379 31.3394 118.35 30.9944C119.351 30.6494 120.205 30.1893 120.941 29.6718C121.677 29.1255 122.295 28.608 122.766 28.0905C122.914 27.918 123.061 27.7742 123.179 27.6304V25.6178L123.738 26.8254C123.62 27.0554 123.444 27.3142 123.179 27.6304V31.0519H127.977V10.2644H123.561L123.208 13.4846ZM123.208 22.2826C122.973 23.3464 122.531 24.2952 121.883 25.1003C121.236 25.9053 120.441 26.5379 119.499 26.9691C118.527 27.4004 117.467 27.6304 116.26 27.6304C114.994 27.6304 113.817 27.3142 112.698 26.6816C111.609 26.0491 110.726 25.1865 110.078 24.0652C109.43 22.9727 109.106 21.7363 109.106 20.385C109.106 18.9474 109.43 17.6823 110.048 16.6185C110.696 15.5547 111.52 14.7209 112.61 14.1171C113.67 13.5133 114.847 13.2258 116.172 13.2258C117.291 13.2258 118.35 13.4271 119.322 13.8584C120.294 14.2896 121.118 14.8647 121.795 15.6122C122.472 16.3597 122.973 17.2511 123.237 18.2574V22.2826H123.208Z" fill="white"/>
<path d="M163.6 9.31556C161.98 9.31556 160.449 9.74684 159.007 10.6094C157.682 11.3857 156.622 12.4783 155.798 13.8296C155.798 13.8871 155.827 13.9446 155.827 14.0021L155.562 14.2034C155.621 14.0596 155.71 13.9446 155.769 13.8296C155.592 12.9383 155.209 12.162 154.65 11.5294C154.061 10.8394 153.296 10.2931 152.354 9.91936C151.441 9.54558 150.381 9.34432 149.203 9.34432C147.29 9.34432 145.582 9.80435 144.14 10.7244C142.786 11.587 141.726 12.7083 140.96 14.1171L141.019 14.8647L140.754 14.4621C140.813 14.3471 140.872 14.2321 140.931 14.1171L140.578 10.2069H136.191V30.9944H141.019V21.19C141.019 19.81 141.284 18.5449 141.843 17.3661C142.403 16.1872 143.139 15.2384 144.11 14.5196C145.082 13.8008 146.171 13.4271 147.408 13.4271C148.644 13.4558 149.527 13.8296 150.057 14.5484C150.587 15.2672 150.882 16.1585 150.911 17.2223V30.9369H155.739V21.075C155.769 19.695 156.063 18.4299 156.593 17.2798C157.123 16.1297 157.888 15.1809 158.86 14.4621C159.831 13.7433 160.95 13.3696 162.186 13.3696C163.423 13.3983 164.277 13.7721 164.777 14.4909C165.278 15.2097 165.543 16.101 165.572 17.1648V30.8794H170.4V15.4397C170.341 13.6283 169.694 12.1332 168.457 10.9544C167.338 9.91935 165.69 9.31556 163.6 9.31556Z" fill="white"/>
<path d="M141.077 14.8359L141.019 14.0884C140.96 14.2034 140.901 14.3184 140.843 14.4334L141.077 14.8359Z" fill="white"/>
<path d="M155.827 14.0021C155.827 13.9446 155.797 13.8871 155.797 13.8296C155.709 13.9446 155.651 14.0884 155.592 14.2034L155.827 14.0021Z" fill="white"/>
<path d="M198.486 24.1802L197.985 23.1164L197.514 24.2952L198.486 24.1802Z" fill="white"/>
<path d="M186.651 24.8415L185.738 22.8289L185.002 24.4965L186.651 24.8415Z" fill="white"/>
<path d="M197.985 23.1164L198.486 24.1802L197.514 24.2952L197.985 23.1164L192.156 10.1781H187.976L189.742 13.7433L185.738 22.8289L186.651 24.8415L185.002 24.4965L185.738 22.8289L180.056 10.1781H175.317L185.15 32.2307L191.42 17.9698L198.28 32.2307L208.054 10.1781H203.373L197.985 23.1164Z" fill="white"/>
<path d="M229.663 11.7307C227.808 10.1206 225.482 9.31556 222.656 9.31556C220.448 9.31556 218.475 9.80434 216.68 10.8107C214.884 11.817 213.471 13.1683 212.381 14.8359C211.292 16.5035 210.762 18.3724 210.762 20.4137C210.762 22.5701 211.233 24.4677 212.205 26.1066C213.176 27.7742 214.53 29.068 216.267 30.0168C218.004 30.9656 220.095 31.4544 222.538 31.4544C223.804 31.4544 225.099 31.2244 226.424 30.7931C227.749 30.3619 228.927 29.7868 229.986 29.0968L227.837 25.6178C227.042 26.1641 226.218 26.5954 225.335 26.9116C224.452 27.2567 223.569 27.4004 222.626 27.4004C221.243 27.4004 220.036 27.0841 218.946 26.4804C217.946 25.9053 217.151 25.1003 216.532 24.094L215.826 24.3527L214.707 21.5926L215.59 21.2763C215.531 20.9025 215.531 20.5287 215.531 20.155C215.531 18.7461 215.826 17.5098 216.415 16.4748C217.003 15.4109 217.798 14.5771 218.799 13.9733C219.8 13.3696 220.978 13.082 222.273 13.082C223.804 13.082 225.07 13.4846 226.041 14.2896C226.925 15.0084 227.543 15.871 227.985 16.8485L229.074 16.446L228.102 17.136C228.073 17.021 228.014 16.9348 227.985 16.8198L215.62 21.2763C215.738 22.2251 216.002 23.1164 216.444 23.9215C216.474 23.979 216.532 24.0652 216.562 24.1227L233.431 18.3436C232.783 15.5547 231.517 13.3408 229.663 11.7307Z" fill="white"/>
<path d="M229.103 16.446L228.014 16.8485C228.043 16.9635 228.102 17.0498 228.132 17.1648L229.103 16.446Z" fill="white"/>
<path d="M215.62 21.305L214.737 21.6213L215.855 24.3815L216.562 24.1227C216.532 24.0652 216.474 23.979 216.444 23.9215C216.032 23.1452 215.767 22.2538 215.62 21.305Z" fill="white"/>
<path d="M258.249 10.6669C256.659 9.77559 254.951 9.31556 253.038 9.31556C251.036 9.31556 249.27 9.68935 247.65 10.4081C246.119 11.0982 244.942 11.9607 244.118 13.0245V14.9509L244.029 13.1396C244.059 13.0821 244.088 13.0533 244.118 13.0245V1.03506H239.319V30.9944H244.147V27.8029C243.941 27.5729 243.764 27.3429 243.588 27.0842L244.147 25.6753V27.8029C244.971 28.7518 245.972 29.5856 247.15 30.2468C248.651 31.0806 250.388 31.5119 252.361 31.5119C254.304 31.5119 256.129 31.0806 257.807 30.1893C259.485 29.298 260.839 28.0042 261.84 26.3079C262.841 24.6115 263.371 22.5989 263.371 20.2412C263.371 18.0273 262.9 16.101 261.958 14.4909C261.104 12.852 259.838 11.587 258.249 10.6669ZM257.689 23.9502C257.071 25.0428 256.217 25.9341 255.128 26.5666C254.039 27.1991 252.802 27.5154 251.389 27.5154C250.182 27.5154 249.093 27.2854 248.062 26.8254C247.062 26.3654 246.208 25.7616 245.56 24.9565C244.912 24.1802 244.441 23.2889 244.176 22.3114V18.0274C244.471 17.021 244.971 16.1585 245.648 15.4109C246.326 14.6634 247.15 14.0884 248.151 13.6858C249.152 13.2546 250.212 13.0533 251.389 13.0533C252.773 13.0533 253.98 13.3696 255.069 13.9733C256.158 14.6059 257.012 15.4397 257.63 16.5323C258.278 17.6248 258.572 18.8324 258.572 20.1837C258.631 21.5926 258.308 22.8289 257.689 23.9502Z" fill="white"/>
<path d="M243.646 27.0554C243.823 27.3142 244 27.5442 244.206 27.7742V25.6466L243.646 27.0554Z" fill="white"/>
<path d="M244.176 14.9509V13.0245C244.147 13.0533 244.117 13.1108 244.088 13.1396L244.176 14.9509Z" fill="white"/>
<path d="M287.011 25.5603V27.5729C287.276 27.2566 287.453 26.9979 287.571 26.7679L287.011 25.5603Z" fill="white"/>
<path d="M287.041 13.4846C287.1 13.5996 287.188 13.6858 287.247 13.8008L286.952 14.5484L287.041 13.4846C286.364 12.4207 285.392 11.4719 284.126 10.6669C282.743 9.77559 281.035 9.34432 279.063 9.34432C277.061 9.34432 275.235 9.80435 273.557 10.6957C271.879 11.587 270.525 12.8808 269.554 14.5771C268.553 16.2447 268.052 18.2574 268.052 20.615C268.052 22.9727 268.523 24.9565 269.495 26.5666C270.466 28.2055 271.762 29.413 273.381 30.2468C275 31.0807 276.825 31.5119 278.798 31.5119C280.064 31.5119 281.212 31.3394 282.183 30.9944C283.184 30.6494 284.038 30.1893 284.774 29.6718C285.51 29.1255 286.128 28.608 286.599 28.0905C286.746 27.918 286.894 27.7742 287.011 27.6304V25.6178L287.571 26.8254C287.453 27.0554 287.276 27.3142 287.011 27.6304V31.0519H291.81V10.2644H287.394L287.041 13.4846ZM287.011 22.2826C286.776 23.3464 286.334 24.2952 285.687 25.1003C285.039 25.9053 284.244 26.5379 283.302 26.9691C282.33 27.4004 281.271 27.6304 280.064 27.6304C278.798 27.6304 277.62 27.3142 276.501 26.6816C275.412 26.0491 274.529 25.1865 273.881 24.0652C273.234 22.9727 272.91 21.7363 272.91 20.385C272.91 18.9474 273.234 17.6823 273.852 16.6185C274.499 15.5547 275.324 14.7209 276.413 14.1171C277.473 13.5133 278.65 13.2258 279.975 13.2258C281.094 13.2258 282.154 13.4271 283.125 13.8584C284.097 14.2896 284.921 14.8647 285.598 15.6122C286.275 16.3597 286.776 17.2511 287.041 18.2574V22.2826H287.011Z" fill="white"/>
<path d="M287.217 13.8008C287.158 13.6858 287.099 13.5996 287.011 13.4846L286.894 14.5484L287.217 13.8008Z" fill="white"/>
<path d="M304.616 27.4004C304.704 27.5154 304.793 27.6592 304.881 27.7742V25.9341L304.616 27.4004Z" fill="white"/>
<path d="M318.983 10.6957C317.393 9.7756 315.598 9.31556 313.596 9.31556C311.653 9.31556 309.886 9.7181 308.296 10.5519C306.854 11.2994 305.647 12.2482 304.675 13.3696L304.911 15.2097L304.41 13.7146C304.499 13.5996 304.587 13.4846 304.705 13.3696L304.263 9.89059H300.083V41H304.881V27.8029C304.793 27.6879 304.705 27.5442 304.616 27.4292L304.881 25.9628V27.8029C305.647 28.8668 306.707 29.7293 308.031 30.3906C309.533 31.1382 311.064 31.4832 312.683 31.4832C314.891 31.4832 316.834 31.0519 318.571 30.1606C320.308 29.2693 321.662 28.0042 322.663 26.3366C323.664 24.669 324.165 22.7426 324.165 20.5287C324.165 18.2861 323.693 16.331 322.781 14.6346C321.839 12.9383 320.602 11.6157 318.983 10.6957ZM318.277 24.2665C317.57 25.359 316.657 26.2216 315.539 26.8254C314.42 27.4579 313.154 27.7454 311.77 27.7454C310.652 27.7454 309.592 27.5154 308.62 27.0266C307.649 26.5379 306.824 25.8766 306.177 25.0428C305.529 24.209 305.117 23.2889 304.94 22.2826V18.7749C305.205 17.6823 305.676 16.7048 306.324 15.8997C306.972 15.0947 307.796 14.4621 308.797 14.0021C309.798 13.5421 310.917 13.3121 312.153 13.3121C313.478 13.3121 314.714 13.6283 315.774 14.2321C316.863 14.8647 317.717 15.6984 318.365 16.791C319.013 17.8836 319.336 19.1199 319.336 20.5287C319.336 21.9376 318.983 23.1739 318.277 24.2665Z" fill="white"/>
<path d="M304.911 15.2097L304.675 13.3696C304.587 13.4846 304.469 13.5996 304.381 13.7146L304.911 15.2097Z" fill="white"/>
<path d="M335.411 10.1781H330.582V30.9656H335.411V10.1781Z" fill="white"/>
<path d="M331.201 4.51403C331.789 5.00281 332.467 5.23282 333.173 5.23282C333.88 5.23282 334.557 5.00281 335.116 4.51403C335.705 4.02525 335.999 3.3927 335.999 2.6164C335.999 1.86886 335.705 1.26507 335.116 0.747538C334.527 0.258759 333.88 0 333.173 0C332.467 0 331.789 0.258759 331.201 0.747538C330.612 1.23632 330.288 1.86886 330.288 2.6164C330.288 3.42145 330.582 4.02525 331.201 4.51403Z" fill="white"/>
<path d="M91.4338 75.25L83.8838 53.05L89.1838 52.7L89.7838 57.25L93.8338 71.1L98.2838 58.05L96.7338 53L101.884 52.7L102.384 57.25L105.784 70.5L110.234 58L110.784 53.05H115.984L107.284 74.95L103.534 75.25L99.7838 63.05L95.4338 74.95L91.4338 75.25ZM120.266 75L120.966 65.1V58.1L120.216 52.95L125.266 52.45L125.066 56.2C126.232 54.8 127.266 53.8 128.166 53.2C129.066 52.6 129.999 52.3 130.966 52.3C131.966 52.3 132.949 52.5167 133.916 52.95L132.566 57.25L128.066 55.9C126.832 57 125.749 58.4 124.816 60.1V65.15L125.366 75H120.266ZM142.315 75.75C140.182 75.75 138.532 75.1833 137.365 74.05C136.232 72.8833 135.665 71.3 135.665 69.3C135.665 67.3 136.482 65.8167 138.115 64.85C139.748 63.8833 143.182 62.9167 148.415 61.95C148.415 59.4167 148.132 57.6667 147.565 56.7C146.998 55.7333 145.982 55.25 144.515 55.25C143.715 55.25 143.082 55.2833 142.615 55.35L138.415 59.05L136.165 55.3C138.732 53.2667 141.598 52.25 144.765 52.25C149.998 52.25 152.615 54.8833 152.615 60.15V69.4L153.515 75.05L148.865 75.75L148.665 73.25C146.598 74.9167 144.482 75.75 142.315 75.75ZM139.915 69.1C139.915 70.2 140.248 71.0667 140.915 71.7C141.615 72.3333 142.682 72.65 144.115 72.65C145.582 72.65 147.015 72.1333 148.415 71.1V64.8C145.215 65.2667 142.498 65.9833 140.265 66.95C140.032 67.85 139.915 68.5667 139.915 69.1ZM160.52 76.05V58.65L159.62 53L164.27 52.3L164.47 54.8C166.603 53.1333 168.82 52.3 171.12 52.3C173.453 52.3 175.303 53.2333 176.67 55.1C178.037 56.9667 178.72 59.5 178.72 62.7C178.72 66.6333 177.67 69.8 175.57 72.2C173.503 74.5667 170.753 75.75 167.32 75.75C166.287 75.75 165.42 75.6833 164.72 75.55L165.22 85.45L159.97 85.95L160.52 76.05ZM164.72 72.15C165.753 72.5167 166.953 72.7 168.32 72.7C169.687 72.7 170.987 72.5333 172.22 72.2C173.487 70.5333 174.12 67.9 174.12 64.3C174.12 58.6 172.637 55.75 169.67 55.75C168.07 55.75 166.42 56.15 164.72 56.95V72.15ZM185.374 76.05V58.65L184.474 53L189.124 52.3L189.324 54.8C191.457 53.1333 193.674 52.3 195.974 52.3C198.307 52.3 200.157 53.2333 201.524 55.1C202.89 56.9667 203.574 59.5 203.574 62.7C203.574 66.6333 202.524 69.8 200.424 72.2C198.357 74.5667 195.607 75.75 192.174 75.75C191.14 75.75 190.274 75.6833 189.574 75.55L190.074 85.45L184.824 85.95L185.374 76.05ZM189.574 72.15C190.607 72.5167 191.807 72.7 193.174 72.7C194.54 72.7 195.84 72.5333 197.074 72.2C198.34 70.5333 198.974 67.9 198.974 64.3C198.974 58.6 197.49 55.75 194.524 55.75C192.924 55.75 191.274 56.15 189.574 56.95V72.15ZM218.777 75.75C215.777 75.75 213.327 74.75 211.427 72.75C209.527 70.75 208.577 68 208.577 64.5C208.577 60.9667 209.544 58.05 211.477 55.75C213.41 53.45 215.76 52.3 218.527 52.3C221.327 52.3 223.427 52.9833 224.827 54.35C226.227 55.7167 226.927 57.6333 226.927 60.1C226.927 61 226.844 62.0833 226.677 63.35L213.177 63.8C213.177 66.6333 213.66 68.8333 214.627 70.4C215.627 71.9333 217.027 72.7 218.827 72.7C221.194 72.7 223.377 71.85 225.377 70.15L226.727 73.85C224.46 75.1167 221.81 75.75 218.777 75.75ZM213.277 61.2L222.377 60.8C222.344 58.7667 222.01 57.35 221.377 56.55C220.744 55.75 219.71 55.35 218.277 55.35C216.844 55.35 215.727 55.5 214.927 55.8C214.094 56.7 213.544 58.5 213.277 61.2ZM232.717 75L233.417 65.1V58.1L232.667 52.95L237.717 52.45L237.517 56.2C238.684 54.8 239.717 53.8 240.617 53.2C241.517 52.6 242.45 52.3 243.417 52.3C244.417 52.3 245.4 52.5167 246.367 52.95L245.017 57.25L240.517 55.9C239.284 57 238.2 58.4 237.267 60.1V65.15L237.817 75H232.717Z" fill="white"/>
</svg>
